# xmcd
#
# Track frame offsets:
#	150
#	27900
#	40275
#	60075
#	75900
#	92025
#	104550
#	117825
#	136725
#	155475
#	166050
#	182475
#	196350
#	210825
#	239475
#	261975
#	280800
#	292425
#
# Disc length: 4109 seconds
#
# Revision: 4
# Processed by: cddbd v1.5.2PL0 Copyright (c) Steve Scherf et al.
# Submitted via: audiograbber 1.83.01
#
DISCID=f3100b12
DTITLE=Various Artist - DKG094
DYEAR=1900
DGENRE=Karaoke
TTITLE0=Queen - Bohemian Rhapsody
TTITLE1=Checker, Chubby - The Twist
TTITLE2=Roxette - It Must Have Been Love
TTITLE3=Lee, Peggy - Fever
TTITLE4=Dupree, Robbie - Steal Away
TTITLE5=Wells, Kitty - It Wasn't God Who Made Honky Tonk Angels
TTITLE6=Crenshaw, Marshall - Someday Someway
TTITLE7=Melanie - Look What They've Done To My Song, Ma
TTITLE8=Warwick, Dionne And The Spinners - Then Came You
TTITLE9=Peter, Paul And Mary - If I Had A Hammer (The Hammer Song)
TTITLE10=Martin, Dean - Volare
TTITLE11=Supremes - Love Is Here And Now You're Gone
TTITLE12=Harris, Rolf - Tie Me Kangaroo Down
TTITLE13=Tears For Fears - Shout
TTITLE14=Turner, Tina And Turner, Ike - Proud Mary
TTITLE15=Duran Duran - Notorious
TTITLE16=Raye, Collin - Every Second
TTITLE17=Kim, Andy - Rock Me Gently
EXTD=
EXTT0=
EXTT1=
EXTT2=
EXTT3=
EXTT4=
EXTT5=
EXTT6=
EXTT7=
EXTT8=
EXTT9=
EXTT10=
EXTT11=
EXTT12=
EXTT13=
EXTT14=
EXTT15=
EXTT16=
EXTT17=
PLAYORDER=
